<svg width="100" height="104" viewBox="0 0 100 104" fill="none" xmlns="http://www.w3.org/2000/svg">
<g filter="url(#filter0_d_108_494)">
<circle cx="50" cy="44" r="44" fill="#FF6600"/>
</g>
<path d="M73.2209 61.4387H70.8488V34.6817C70.8488 33.2097 70.1847 31.8327 69.0223 30.9305L66.1046 28.6513L66.0572 22.8345C66.0572 21.5287 64.9898 20.4841 63.6851 20.4841H55.5963L52.4177 18.015C50.7098 16.6617 48.2902 16.6617 46.5823 18.015L29.9777 30.9305C28.8153 31.8327 28.1512 33.2097 28.1512 34.658L28.0326 61.4387H25.7791C24.8065 61.4387 24 62.246 24 63.2194C24 64.1928 24.8065 65 25.7791 65H73.2209C74.1935 65 75 64.1928 75 63.2194C75 62.246 74.1935 61.4387 73.2209 61.4387ZM36.4535 41.2582V37.6969C36.4535 36.3911 37.5209 35.3227 38.8256 35.3227H43.5698C44.8744 35.3227 45.9419 36.3911 45.9419 37.6969V41.2582C45.9419 42.564 44.8744 43.6324 43.5698 43.6324H38.8256C37.5209 43.6324 36.4535 42.564 36.4535 41.2582ZM55.4302 61.4387H43.5698V54.9097C43.5698 52.9392 45.1591 51.3485 47.1279 51.3485H51.8721C53.8409 51.3485 55.4302 52.9392 55.4302 54.9097V61.4387ZM62.5465 41.2582C62.5465 42.564 61.4791 43.6324 60.1744 43.6324H55.4302C54.1256 43.6324 53.0581 42.564 53.0581 41.2582V37.6969C53.0581 36.3911 54.1256 35.3227 55.4302 35.3227H60.1744C61.4791 35.3227 62.5465 36.3911 62.5465 37.6969V41.2582Z" fill="white"/>
<defs>
<filter id="filter0_d_108_494" x="0" y="0" width="100" height="104" filterUnits="userSpaceOnUse" color-interpolation-filters="sRGB">
<feFlood flood-opacity="0" result="BackgroundImageFix"/>
<feColorMatrix in="SourceAlpha" type="matrix" values="0 0 0 0 0 0 0 0 0 0 0 0 0 0 0 0 0 0 127 0" result="hardAlpha"/>
<feOffset dy="10"/>
<feGaussianBlur stdDeviation="3"/>
<feComposite in2="hardAlpha" operator="out"/>
<feColorMatrix type="matrix" values="0 0 0 0 0 0 0 0 0 0 0 0 0 0 0 0 0 0 0.25 0"/>
<feBlend mode="normal" in2="BackgroundImageFix" result="effect1_dropShadow_108_494"/>
<feBlend mode="normal" in="SourceGraphic" in2="effect1_dropShadow_108_494" result="shape"/>
</filter>
</defs>
</svg>
